<svg xmlns="http://www.w3.org/2000/svg" version="1.0" width="715.000000" height="929.000000" preserveAspectRatio="xMidYMid meet"><rect id="backgroundrect" width="100%" height="100%" x="0" y="0" fill="none" stroke="none"/>


<g class="currentLayer" style=""><title>Layer 1</title><g transform="translate(0,929) scale(0.10000000149011612,-0.10000000149011612) " fill="#ffffff" stroke="none" id="svg_1" class="" fill-opacity="1">
<path d="M3448 9154 c-139 -25 -302 -96 -327 -143 -11 -20 -91 -407 -91 -440 0 -17 -9 -20 -92 -25 -51 -3 -302 -10 -558 -16 -256 -6 -550 -13 -654 -17 l-190 -6 -89 -86 c-196 -188 -335 -418 -431 -712 -73 -225 -91 -332 -91 -559 0 -202 7 -267 50 -440 22 -89 76 -250 93 -277 5 -8 81 2 285 39 153 27 280 48 283 46 2 -2 -8 -67 -21 -144 -128 -714 -220 -1798 -228 -2689 l-2 -250 143 -39 c118 -33 143 -44 147 -61 3 -11 28 -168 55 -350 28 -181 53 -340 56 -351 3 -12 16 -32 29 -44 21 -20 61 -28 327 -66 531 -75 556 -76 599 -33 37 37 25 73 -111 353 -71 147 -130 270 -130 275 0 4 75 -13 168 -39 238 -67 225 -64 218 -43 -3 10 -10 259 -16 553 -22 1130 28 2221 137 2989 14 102 27 188 29 190 6 7 585 108 588 102 4 -6 5 -57 36 -1051 61 -1973 81 -2584 85 -2588 14 -14 391 59 609 118 82 22 151 38 153 36 3 -2 -39 -160 -93 -352 -135 -480 -154 -444 274 -518 156 -26 284 -47 286 -45 2 2 117 281 256 619 139 338 263 638 276 667 20 46 29 55 86 83 35 18 132 71 216 118 133 76 152 90 152 112 0 105 -294 1099 -757 2557 -86 271 -153 496 -150 500 4 3 179 37 389 75 211 37 388 70 395 73 16 5 64 101 97 193 110 307 55 639 -162 972 -30 47 -70 104 -90 128 l-34 42 -138 0 c-75 0 -190 -3 -256 -6 l-119 -7 2 -211 1 -211 81 -315 c62 -244 77 -318 68 -326 -17 -17 -258 -185 -271 -190 -12 -4 -143 193 -202 303 l-37 72 -66 -46 c-36 -26 -74 -53 -84 -62 -11 -9 -21 -11 -27 -5 -16 16 -131 236 -128 244 2 5 61 70 132 145 71 75 127 137 125 138 -17 11 -82 37 -92 37 -7 0 -72 -36 -145 -80 -73 -44 -137 -80 -141 -80 -5 0 -30 84 -55 187 -40 158 -45 189 -33 198 8 5 89 50 180 100 91 49 165 90 164 91 -1 1 -135 -2 -297 -6 -336 -10 -309 -16 -337 80 -13 44 -15 84 -10 215 4 88 9 181 13 206 6 43 5 46 -22 57 -16 6 -49 16 -74 22 -65 14 -342 11 -432 -6z m42 -264 c53 -29 40 -100 -19 -100 -59 0 -81 73 -29 98 29 14 26 14 48 2z m298 -6 c26 -18 30 -65 7 -84 -22 -18 -66 -15 -82 6 -19 25 -16 51 7 74 24 24 38 25 68 4z m-830 -535 l230 -91 7 -144 c4 -80 6 -147 3 -149 -2 -2 -100 14 -217 37 -180 35 -214 39 -222 27 -5 -8 -9 -17 -9 -21 0 -5 69 -42 153 -84 83 -42 157 -80 163 -85 10 -8 7 -34 -41 -306 l-6 -32 -215 75 c-118 41 -219 74 -223 74 -4 0 -14 -15 -23 -33 l-16 -34 83 -69 82 -70 -47 -119 c-26 -67 -52 -119 -58 -118 -7 2 -52 25 -102 53 -50 27 -94 50 -98 50 -5 0 -37 -65 -71 -145 l-63 -144 -42 -6 c-22 -3 -92 -5 -155 -3 l-113 3 -69 191 -70 191 142 237 142 238 -35 35 -35 35 42 101 c38 93 45 103 75 113 l34 11 -27 18 c-15 9 -27 21 -27 26 0 23 113 189 128 190 9 0 91 8 182 18 279 31 255 34 518 -70z m828 -236 l79 -183 90 6 c50 3 101 7 113 10 36 7 24 -9 -47 -65 -40 -32 -58 -53 -50 -56 8 -2 52 -18 99 -35 47 -17 91 -33 99 -36 24 -8 8 -13 -113 -38 -64 -13 -119 -26 -122 -29 -4 -4 39 -151 94 -317 2 -8 -50 39 -116 105 -72 71 -125 115 -130 110 -4 -6 -19 -35 -32 -65 -13 -30 -27 -59 -30 -63 -4 -4 -24 33 -45 82 l-39 91 -35 -5 c-137 -19 -195 -25 -198 -21 -3 2 34 35 82 73 l88 68 -54 7 c-30 4 -90 11 -133 15 l-80 8 80 34 c43 19 106 47 140 62 l61 27 -44 128 c-24 70 -42 128 -41 130 2 1 50 -40 108 -91 57 -52 106 -92 108 -90 3 3 -11 175 -24 290 -3 30 -2 46 4 40 5 -5 44 -92 88 -192z" id="svg_2" fill="#ffffff" fill-opacity="1"/>
<path d="M2455 8379 c-88 -10 -167 -18 -177 -18 -20 -1 -72 -87 -62 -103 4 -7 3 -8 -4 -4 -6 3 -16 -3 -22 -15 -10 -18 -8 -23 12 -37 12 -9 26 -16 31 -14 4 1 6 -4 5 -10 -2 -7 2 -12 8 -11 6 1 11 -5 11 -13 0 -13 -53 -34 -89 -34 -11 0 -27 -27 -51 -82 l-35 -83 36 -37 36 -38 -22 -38 c-12 -22 -19 -42 -17 -46 3 -3 2 -4 -2 -1 -9 7 -175 -274 -168 -286 4 -5 1 -8 -5 -7 -6 2 -25 -22 -43 -53 -29 -53 -30 -58 -19 -98 7 -23 17 -39 22 -36 6 3 7 0 5 -7 -3 -7 14 -67 39 -133 l44 -120 96 -3 c157 -5 148 -11 224 163 36 83 67 152 68 154 2 2 28 -11 60 -28 31 -17 61 -28 67 -24 5 3 7 2 4 -4 -3 -5 14 -19 38 -31 l45 -22 11 21 c6 11 8 28 4 37 -3 9 -3 13 1 9 4 -4 18 18 30 48 l23 56 -32 28 c-75 66 -97 82 -104 78 -5 -3 -17 1 -28 9 -10 8 -14 14 -9 14 6 0 17 -6 25 -12 7 -7 7 -4 -3 6 -15 17 -14 22 12 78 16 33 31 62 34 65 4 4 137 -36 215 -65 10 -4 12 -1 7 9 -5 9 -3 9 6 -2 13 -15 195 -85 203 -78 5 6 47 251 43 254 -2 2 -75 38 -163 80 -154 74 -184 93 -166 105 5 3 14 24 21 48 7 23 16 42 19 42 3 0 87 -16 186 -35 196 -38 207 -39 185 -25 -12 8 -12 10 -1 10 8 0 20 -8 27 -17 11 -15 13 -1 14 93 0 80 -4 113 -12 117 -187 76 -293 115 -299 111 -5 -3 -9 -1 -9 4 0 17 -115 52 -166 51 -27 -1 -121 -10 -209 -20z m-65 -39 c11 -8 7 -9 -15 -4 -37 8 -45 14 -19 14 10 0 26 -5 34 -10z m-215 -240 c-3 -5 -12 -10 -18 -10 -7 0 -6 4 3 10 19 12 23 12 15 0z m42 4 c-3 -3 -12 -4 -19 -1 -8 3 -5 6 6 6 11 1 17 -2 13 -5z m-37 -210 c0 -13 -27 -1 -38 16 -12 20 -12 21 13 4 14 -9 25 -18 25 -20z m-109 -187 c-10 -9 -11 -8 -5 6 3 10 9 15 12 12 3 -3 0 -11 -7 -18z m3 -32 c-4 -8 -8 -15 -10 -15 -2 0 -4 7 -4 15 0 8 4 15 10 15 5 0 7 -7 4 -15z m-34 -55 c0 -5 -5 -10 -11 -10 -5 0 -7 5 -4 10 3 6 8 10 11 10 2 0 4 -4 4 -10z m880 -20 c0 -5 -7 -7 -15 -4 -8 4 -15 8 -15 10 0 2 7 4 15 4 8 0 15 -4 15 -10z m38 -11 c12 -19 11 -19 -8 -9 -11 6 -20 15 -20 20 0 17 15 11 28 -11z m-1042 -174 c3 -8 -1 -22 -10 -30 -9 -9 -16 -12 -16 -6 0 5 5 13 10 16 6 3 10 11 10 16 0 6 -4 7 -10 4 -5 -3 -10 -1 -10 4 0 16 20 13 26 -4z m354 -255 c0 -5 -2 -10 -4 -10 -3 0 -8 5 -11 10 -3 6 -1 10 4 10 6 0 11 -4 11 -10z" id="svg_3" fill="#ffffff" fill-opacity="1"/>
<path d="M4266 8913 c-19 -55 -19 -56 -6 -48 6 3 10 1 10 -4 0 -6 -6 -11 -12 -11 -7 0 -23 -26 -34 -59 l-22 -58 158 -5 157 -5 67 -52 c37 -28 72 -48 78 -45 7 4 8 2 4 -5 -4 -6 0 -14 8 -17 25 -10 19 -23 -19 -41 -19 -9 -31 -21 -28 -26 3 -6 1 -7 -5 -3 -10 6 -54 -15 -72 -34 -3 -3 -11 -6 -19 -8 -26 -5 -200 -105 -196 -112 3 -4 -3 -7 -13 -6 -11 1 -18 -7 -20 -24 -2 -21 -1 -22 9 -10 9 13 10 12 5 -4 -7 -21 13 -128 23 -122 3 2 6 -10 7 -27 2 -46 23 -117 35 -117 6 0 8 4 5 9 -3 5 0 8 7 7 20 -2 196 107 190 119 -4 5 -3 7 2 3 4 -4 16 -3 26 3 14 7 32 4 70 -12 28 -12 57 -22 65 -22 8 0 14 -4 14 -8 0 -4 9 -11 20 -14 19 -6 18 -9 -15 -48 -32 -37 -34 -42 -18 -49 15 -6 14 -7 -4 -5 -29 3 -164 -128 -156 -152 4 -13 3 -13 -5 -2 -7 10 -15 6 -36 -21 -31 -42 -32 -54 -6 -68 11 -6 18 -15 15 -20 -3 -4 -2 -16 1 -25 6 -13 9 -14 16 -3 7 10 8 8 4 -5 -7 -23 31 -100 47 -94 7 3 11 10 9 16 -1 7 2 9 8 6 14 -8 92 44 84 56 -3 5 1 6 9 3 8 -3 20 2 27 11 7 8 18 15 24 15 6 0 33 -42 60 -92 62 -117 91 -160 100 -150 4 4 6 2 4 -5 -3 -14 63 -123 75 -123 18 0 56 33 50 44 -3 6 -3 8 2 4 10 -10 47 10 40 22 -3 5 0 12 6 16 8 4 9 3 5 -4 -11 -19 7 -14 34 9 14 11 18 17 10 13 -8 -4 -11 -3 -7 1 4 5 14 10 21 11 17 2 66 34 66 43 1 28 -46 189 -53 184 -6 -3 -7 -1 -3 5 4 7 4 28 0 47 -6 33 -7 34 -20 18 -13 -16 -13 -15 -4 7 9 20 3 58 -31 195 l-43 170 0 200 -1 200 -182 181 -183 181 -142 6 c-79 4 -180 7 -225 7 l-81 0 -16 -47z m391 -269 c-3 -3 -12 -4 -19 -1 -8 3 -5 6 6 6 11 1 17 -2 13 -5z m470 -696 c-3 -8 -6 -5 -6 6 -1 11 2 17 5 13 3 -3 4 -12 1 -19z m88 -298 c-4 -11 -2 -20 4 -20 6 0 8 -7 5 -15 -4 -8 -10 -12 -15 -9 -10 6 -12 48 -2 57 12 12 14 7 8 -13z m-318 -42 c-3 -8 -6 -5 -6 6 -1 11 2 17 5 13 3 -3 4 -12 1 -19z" id="svg_4" fill="#ffffff" fill-opacity="1"/>
<path d="M3344 2777 c-58 -28 -114 -82 -140 -135 -28 -57 -31 -178 -6 -234 85 -194 344 -235 486 -77 101 112 97 277 -8 382 -58 58 -109 80 -201 84 -69 4 -87 1 -131 -20z" id="svg_5" fill="#ffffff" fill-opacity="1"/>
<path d="M6874 2315 c-59 -30 -95 -79 -101 -139 -11 -93 44 -176 133 -202 49 -14 59 -14 108 0 168 49 182 274 21 347 -55 25 -102 24 -161 -6z m156 -27 c52 -27 80 -74 80 -136 0 -141 -159 -208 -258 -108 -31 31 -36 43 -40 95 -5 75 21 124 82 152 54 24 83 24 136 -3z" id="svg_6" fill="#ffffff" fill-opacity="1"/>
<path d="M6890 2150 c0 -91 3 -110 15 -110 11 0 15 12 15 50 0 42 3 50 19 50 11 0 30 -19 49 -50 17 -27 38 -50 47 -50 10 0 13 5 9 13 -4 6 -18 29 -31 49 -22 37 -22 37 -2 43 42 13 45 93 4 109 -9 3 -41 6 -71 6 l-54 0 0 -110z m115 50 c0 -17 -7 -27 -26 -34 -39 -13 -59 -2 -59 34 0 30 1 31 43 28 37 -3 42 -6 42 -28z" id="svg_7" fill="#ffffff" fill-opacity="1"/>
<path d="M3990 2201 c-17 -32 -13 -338 6 -400 20 -70 75 -125 145 -145 103 -31 171 -14 309 74 107 69 152 86 204 76 45 -9 66 -38 66 -93 0 -35 -6 -50 -37 -84 -44 -48 -100 -78 -236 -126 -164 -57 -255 -111 -345 -207 -69 -72 -109 -159 -123 -264 -14 -105 -9 -263 10 -285 12 -16 68 -17 621 -17 575 0 608 1 623 18 15 16 17 51 17 287 0 232 -2 271 -16 286 -22 24 -35 17 -118 -65 -143 -142 -344 -210 -462 -157 -53 24 -74 55 -74 108 0 33 7 50 32 78 39 46 78 65 205 104 156 48 250 100 321 175 92 98 105 142 110 350 3 154 2 171 -14 183 -14 10 -128 13 -546 13 -575 0 -574 0 -616 56 -36 48 -42 54 -57 54 -8 0 -19 -9 -25 -19z" id="svg_8" fill="#ffffff" fill-opacity="1"/>
<path d="M720 2120 c-47 -10 -119 -26 -160 -35 -101 -23 -216 -15 -303 19 -71 29 -99 32 -116 13 -7 -10 -11 -298 -13 -988 -2 -774 -6 -979 -16 -997 -7 -12 -31 -34 -52 -47 -40 -26 -50 -51 -28 -73 9 -9 70 -12 213 -12 188 0 204 1 245 23 33 16 51 34 68 67 21 43 22 53 22 356 0 270 2 313 16 324 13 11 29 9 97 -14 110 -38 260 -46 371 -22 294 66 484 311 503 646 13 242 -70 471 -219 605 -64 57 -192 121 -283 140 -95 20 -241 18 -345 -5z m328 -625 c49 -21 110 -80 133 -130 22 -48 25 -142 5 -189 -22 -53 -82 -112 -138 -136 -104 -44 -232 -9 -298 82 -119 164 -2 388 203 388 32 0 74 -7 95 -15z" id="svg_9" fill="#ffffff" fill-opacity="1"/>
<path d="M2190 2124 c-137 -29 -301 -134 -361 -230 -17 -29 -19 -37 -8 -50 15 -18 27 -16 122 20 132 50 231 30 231 -47 0 -51 -23 -72 -154 -135 -97 -48 -127 -68 -191 -132 -113 -111 -159 -217 -159 -364 0 -181 79 -325 225 -411 156 -92 320 -104 570 -41 135 35 159 38 246 34 75 -4 107 -10 153 -31 69 -32 87 -33 110 -8 16 17 17 55 14 472 -3 393 -6 462 -21 514 -61 213 -212 361 -418 410 -80 19 -271 18 -359 -1z m138 -730 c216 -107 137 -423 -106 -424 -115 0 -205 69 -232 178 -44 184 162 334 338 246z" id="svg_10" fill="#ffffff" fill-opacity="1"/>
<path d="M5961 2110 c-442 -119 -665 -590 -471 -995 160 -332 545 -491 900 -370 186 63 328 190 415 370 57 118 70 177 70 310 -1 198 -63 344 -209 491 -96 96 -170 141 -296 184 -96 33 -306 38 -409 10z m414 -350 c205 -88 187 -385 -29 -456 -209 -70 -400 152 -298 347 61 117 200 164 327 109z" id="svg_11" fill="#ffffff" fill-opacity="1"/>
<path d="M3146 2097 c-25 -18 -14 -46 27 -72 69 -43 67 -24 67 -677 0 -520 2 -588 16 -602 13 -14 48 -16 228 -16 151 0 215 3 224 12 9 9 12 163 12 631 0 690 2 665 -69 709 -34 22 -47 23 -261 26 -180 3 -229 0 -244 -11z" id="svg_12" fill="#ffffff" fill-opacity="1"/>
</g></g></svg>